<?xml version="1.0" encoding="UTF-8" standalone="no"?>
<!DOCTYPE svg PUBLIC "-//W3C//DTD SVG 1.1//EN" "http://www.w3.org/Graphics/SVG/1.1/DTD/svg11.dtd">
<!-- Created with Vectornator (http://vectornator.io/) -->
<svg height="100%" stroke-miterlimit="10" style="fill-rule:nonzero;clip-rule:evenodd;stroke-linecap:round;stroke-linejoin:round;" version="1.1" viewBox="0 0 611 408" width="100%" xml:space="preserve" xmlns="http://www.w3.org/2000/svg" xmlns:xlink="http://www.w3.org/1999/xlink">
<defs/>
<clipPath id="ArtboardFrame">
<rect height="408" width="611" x="0" y="0"/>
</clipPath>
<g clip-path="url(#ArtboardFrame)" id="Untitled"><path d="M370 409C246.667 409 123.833 409 1.00007 409C1.00004 273 1.00004 137 1.00002 1.00014C204.667 1.00009 408.333 1.00009 612 1.00005C612 137 612 273 612 409C531.5 409 451 409 370 409M565.595 284.204C565.628 284.801 565.66 285.398 565.692 285.995C566.378 285.86 567.064 285.725 568.012 285.536C568.012 285.536 568.171 285.32 568.672 285.268C568.843 284.697 569.013 284.126 569.184 283.555C568.763 283.532 568.343 283.508 567.454 283.376C567.103 283.399 566.839 283.561 565.595 284.204M223.303 80. ..."/></g>
</svg>
