<svg width="184" height="92" viewBox="0 0 184 92" fill="none" xmlns="http://www.w3.org/2000/svg">
<g clip-path="url(#clip0_749_1962)">
<path d="M67.159 67.919V46.238L53.494 59.491L68.862 82.3H61.567L49.1 63.74L42.089 70.54V82.3H36.069V29.605H42.089V62.182L58.731 45.822H73.109V67.922C73.109 73.375 76.72 77.341 82.386 77.341C87.933 77.341 91.526 73.441 91.586 68.059V0H0V91.586H91.586V80.317C88.891 82.1996 85.6731 83.1888 82.386 83.145C73.817 83.145 67.16 77.125 67.16 67.919H67.159Z" fill="#FC1373"/>
<path d="M147.398 82.296H141.379V58.715C141.379 53.97 138.262 50.429 133.447 50.429C128.632 50.429 125.515 53.97 125.515 58.715V82.298H119.495V58.715C119.495 53.97 116.379 50.429 111.563 50.429C106.747 50.429 103.631 53.97 103.631 58.715V82.298H97.611V58.925C97.611 50.993 103.347 44.902 111.563 44.902C113.756 44.8229 115.929 45.3412 117.85 46.4016C119.771 47.4619 121.367 49.0244 122.469 50.922C123.592 49.0276 125.204 47.4696 127.135 46.4107C129.066 45.3517 131.246 44.8307 133.447 44.902C141.732 44.902 147.398 50.993 147.398 58.925V82.296Z" fill="#FC1373"/>
<path d="M183.909 64.166C183.909 74.647 175.977 83.217 165.567 83.217C155.226 83.217 147.224 74.648 147.224 64.166C147.224 53.543 155.224 44.903 165.567 44.903C175.976 44.903 183.909 53.543 183.909 64.166ZM177.889 64.166C177.889 56.73 172.366 50.639 165.567 50.639C158.839 50.639 153.315 56.73 153.315 64.166C153.315 71.461 158.839 77.41 165.567 77.41C172.367 77.41 177.889 71.461 177.889 64.166Z" fill="#FC1373"/>
</g>
<defs>
<clipPath id="clip0_749_1962">
<rect width="183.908" height="91.586" fill="white"/>
</clipPath>
</defs>
</svg>
